<?xml version="1.0" encoding="UTF-8"?>
<svg id="Capa_1" data-name="Capa 1" xmlns="http://www.w3.org/2000/svg" viewBox="0 0 506.94 621.81">
  <defs>
    <style>
      .cls-1 {
        stroke: #424242;
        stroke-linecap: round;
        stroke-linejoin: round;
        stroke-width: 5px;
      }
      <!-- Pesas -->
      .cls-1, .cls-2 {
        fill: #565656;
      }
      <!-- Mano -->
      .cls-3 {
        fill: #fff;
      }

      .cls-3, .cls-2, .cls-4, .cls-5 {
        stroke-width: 0px;
      }
      <!-- Letra -->
      .cls-4 {
        fill: #575b60;
      }

      <!-- Barra -->
      .cls-5 {
        fill: #adadad;
      }
    </style>
  </defs>
  <rect class="cls-5" x="96.96" y="191.79" width="312.82" height="29.22"/>
  <rect class="cls-2" x="114.57" y="138.81" width="31.22" height="130.6" rx="15.61" ry="15.61" transform="translate(260.37 408.23) rotate(180)"/>
  <rect class="cls-2" x="147.34" y="116.84" width="36.66" height="174.48" rx="18.33" ry="18.33" transform="translate(331.34 408.17) rotate(-180)"/>
  <rect class="cls-2" x="360.46" y="139.78" width="31.22" height="130.6" rx="15.61" ry="15.61"/>
  <rect class="cls-2" x="324.26" y="118.82" width="36.66" height="174.48" rx="18.33" ry="18.33"/>
  <path class="cls-3" d="m214.87,181.26c2.45-7.54,5.71-10.19,8.45-11.1,5.78-1.9,9.5,3.86,16.24,2.2,6.95-1.72,7.54-8.97,12.72-8.87,5.37.1,6.1,7.89,13.18,8.87,3.82.53,4.77-1.58,10.92-1.33,5.6.23,5.85,2.03,8.4,1.33,5.68-1.56,4.51-10.49,12.32-15.29,1.52-.93,4.05-2.49,6.37-1.68,1.89.66,3.69,2.97,5.2,15.39.56,4.65,1.14,11.18,1.13,19.15-6.41.67-12.81,1.34-19.22,2.01,1.31,8.39,2.62,16.78,3.93,25.16,9.87-2.42,18.19-.48,20.51,4.16,2.84,5.68-4.03,13.99-5.65,15.95-12.1,14.64-26.93,8.22-37.5,20.11-5.73,6.44-6.69,16.31-8.37,35.79-1.46,16.92-1.02,31.68,0,43.45h-60.88c-.71-20.02-.42-36.18,0-47.4.5-13.58,1.17-19.62.02-30.32-1.57-14.64-4.09-15.1-7.24-33.43-3.87-22.45-2.35-34.87,2.84-43.17,1.41-2.26,3.99-6.26,8.02-6.47,4.67-.25,8.11,4.76,8.61,5.51Z"/>
  <g>
    <path class="cls-4" d="m506.94,101.52c-.66-.1-1.32-.21-2.26-.36-.06-1.16-.17-2.31-.17-3.45,0-30.2,0-60.4,0-90.59,0-5.19.19-4.71-4.64-4.71-164.32,0-328.64,0-492.97,0-1.01,0-2.03.01-3.04.03-1.01.02-1.57.51-1.56,1.57,0,.85-.02,1.69-.02,2.54,0,30.45,0,60.9,0,91.35,0,.84.07,1.71-.1,2.52-.07.35-.66.83-1.01.83-.36,0-.89-.45-1.03-.82-.2-.53-.13-1.16-.13-1.76C0,66.79,0,34.9.01,3.01c0-.82.11-1.64.17-2.59.83-.1,1.48-.21,2.14-.24.93-.04,1.86-.01,2.79-.01,165.93,0,331.86,0,497.79,0,1.35,0,2.7-.11,4.04-.17v101.52Z"/>
    <path class="cls-4" d="m506.94,621.81c-1.43-.05-2.87-.14-4.3-.14-166.02,0-332.05,0-498.07,0H.26c-.1-1.36-.24-2.5-.24-3.64-.01-23.09-.01-46.19-.01-69.28,0-8.37,0-16.75,0-25.12,0-.76-.05-1.55.14-2.26.09-.35.7-.79,1.05-.78.36.02.9.5.99.86.17.73.08,1.51.08,2.27,0,30.54,0,61.08,0,91.61,0,1.17,0,2.35,0,3.71.82.15,1.45.33,2.09.38.93.06,1.86.02,2.79.02,164.16,0,328.32,0,492.49,0,.51,0,1.01,0,1.52,0,3.32-.02,3.33-.02,3.33-3.45,0-30.54,0-61.08,0-91.61,0-1.16,0-2.33,0-3.58,1-.2,1.72-.35,2.44-.5v101.52Z"/>
    <path class="cls-4" d="m506.94,461.41c-.24.42-.58.8-.7,1.25-.96,3.36-5.22,5.66-8.7,4.75-3.68-.96-6.01-4.08-5.71-8.1.27-3.53,3.43-6.59,7.02-6.8,3.07-.18,6.2,1.91,7.33,4.86.2.52.5,1,.76,1.5v2.54Z"/>
    <path class="cls-1" d="m360.95,140.34c2.06-.99,3.71-2.05,5.52-2.61,4.15-1.29,8.23-.44,12.15,1.05,8.91,3.38,14.94,12.02,15.04,21.57.09,8.29.02,16.58.03,24.87,0,.91.08,1.81.13,3.04h15.95v32.74h-15.94c-.06,1.18-.14,2.08-.14,2.98-.01,8.04.02,16.07-.01,24.11-.05,11.9-7.74,21.24-19.4,23.56-4.3.86-8.42.52-12.07-2.24-.25-.19-.57-.27-1.21-.57-.09,1.19-.19,2.16-.24,3.14-.71,12.11-10.92,21.7-23.06,21.96-6.61.14-13.02-4.76-13.25-12.79-.05-1.78-.01-3.55-.01-5.33,0-17.09,0-34.18,0-51.26v-3.35c-3.14-.19-6.11-.22-9.41.04,0,2.7,0,5.21,0,7.72.03,5.52-1.96,10.23-5.69,14.24-2.05,2.21-4.56,3.73-7.33,4.88-8.12,3.36-16.23,6.73-24.34,10.1-5.38,2.24-8.76,6.23-10.11,11.86-.37,1.54-.38,3.19-.38,4.78-.02,20.05-.01,40.1-.02,60.15,0,1.07-.09,2.15-.15,3.33h-67.98v-3.05c0-25.55,0-51.09.02-76.64,0-1.8-.3-3.47-.95-5.17-3.59-9.47-5.81-19.24-6.31-29.37-.03-.67-.12-1.35-.21-2.01-.04-.24-.18-.46-.34-.83h-9.03c-.04,1.19-.11,2.26-.11,3.33,0,18.36,0,36.71-.02,55.07,0,1.43.03,2.9-.26,4.29-1.2,5.8-6.17,9.84-12.13,9.98-12.63.29-23.36-9.74-23.94-22.39-.04-.82-.09-1.64-.14-2.55-.44.11-.72.1-.89.24-4.44,3.48-9.4,3.35-14.48,2-8.3-2.21-17.38-9.93-17.38-23.74,0-7.78,0-15.57,0-23.35,0-.91-.08-1.82-.14-3.04h-15.67c-.58-2.29-.64-29.98-.08-32.74h15.73c.07-1.23.16-2.13.16-3.03.01-7.61-.07-15.23.05-22.84.04-2.6.27-5.27.9-7.78,2.57-10.19,12.13-17.53,22.53-17.53,2.61,0,5,.69,7.2,2.07.56.35,1.11.71,1.96,1.26.1-.96.2-1.66.24-2.36.56-8.65,4.52-15.25,11.95-19.74,1.26-.76,2.57-1.15,4.07-1.12,4.23.07,8.46.08,12.69,0,1.58-.03,2.74.53,3.8,1.61,2.42,2.46,3.79,5.36,3.82,8.84.03,3.55.02,7.11.02,10.66,0,15.48,0,30.96,0,46.44,0,1,0,2,0,3.06.7.18,1.17.41,1.64.41,3.55.03,7.1-.02,10.66.05,1.35.02,1.97-.58,2.33-1.8.43-1.46,1.09-2.85,1.51-4.3,1.18-4.04,4.31-5.66,8.02-6.47,2.34-.51,4.71-.34,7,.47.46.16.94.25,1.36.36.18-.27.37-.41.35-.54-.35-2.87,1.58-4.28,3.62-5.56,5.63-3.53,11.55-3.95,17.69-1.48.78.31,1.54.68,2.28,1.02,7-8.17,19.73-9.14,28.28-.38,5.59-2.92,11.36-2.93,17.17.13.3-.98.53-1.69.72-2.41,2.4-8.92,10.06-15.26,19.22-15.91,2.45-.17,3.05.36,3.12,3.06.26,10.55,1.93,20.85,5.32,30.86.19.56.4,1.12.57,1.68.26.84.82,1.24,1.69,1.24,3.11,0,6.22,0,9.6,0,.07-1.22.18-2.19.18-3.17.01-18.7.02-37.39,0-56.09,0-3.5.88-6.68,3.19-9.38,1.38-1.61,2.93-2.54,5.24-2.42,4.05.2,8.12-.01,12.17.1,1.21.03,2.55.34,3.58.94,7.41,4.29,11.55,10.69,12.15,19.3.06.83.11,1.66.18,2.77Zm-158.33,196.2h60.88c0-1.22,0-2.3,0-3.38,0-19.46-.02-38.92.03-58.37,0-2.09.21-4.25.75-6.26,1.72-6.45,5.74-11.02,11.91-13.61,8.18-3.43,16.38-6.81,24.58-10.19,3.73-1.54,6.63-4.01,8.61-7.53,2.82-5.01,2.23-10.4,2.03-15.73-2.91-.54-14.25-.44-16.15.12.15,1.32.35,2.65.43,3.99.06.96-.45,1.62-1.45,1.74-.98.12-1.63-.31-1.9-1.27-.14-.49-.27-.98-.35-1.48-.9-5.68-1.79-11.35-2.68-17.03-1.65-10.43-3.34-20.86-4.9-31.31-.23-1.53-.92-2.43-2.13-3.2-4.89-3.09-10.65-2.67-15.55,1.21-.81.64-1.54,1.4-2.69.83-1.01-.5-1.14-1.45-1.02-2.39.18-1.5-.59-2.35-1.74-3.08-5.27-3.31-10.63-3.5-16.09-.53-1.73.94-3.1,2.09-2.66,4.37.06.32.02.68-.06,1.01-.32,1.39-1.47,1.88-2.68,1.12-.57-.36-1.04-.87-1.57-1.28-5.1-4-11.88-4.37-17.34-1.04-1.58.96-2.6,2.07-2.29,4.06.1.66.02,1.35.01,2.03,0,1.01.14,2.13-.98,2.67-1.08.53-1.87-.16-2.74-.75-1.1-.75-2.3-1.46-3.56-1.85-4.53-1.39-8.42.6-10.07,5.02-3.46,9.26-5.37,18.85-5.93,28.69-.77,13.44,1.28,26.47,6.14,39.03.85,2.19,1.2,4.35,1.2,6.66-.03,24.62-.02,49.24-.02,73.85,0,1.25,0,2.5,0,3.87Zm-24-131.96c0-24.7,0-49.39,0-74.09,0-.93.04-1.86-.03-2.79-.39-5.3-4.58-9.12-9.83-8.87-3.24.15-6.36.92-9.18,2.6-6.73,4.01-10.17,9.96-10.27,17.78-.05,4.4.09,8.79.09,13.19.01,25.88.02,51.76,0,77.64,0,11.08-.1,22.16-.11,33.24,0,3.21-.11,6.45.24,9.63,1.07,9.8,9.7,17.62,20.07,17.48,4.28-.05,7.75-2.99,8.68-7.19.27-1.22.32-2.51.32-3.77.02-24.95.01-49.9.01-74.85Zm149.47.12c0,18.01,0,36.03,0,54.04,0,7.36.13,14.72-.04,22.07-.12,5.11,4.01,10.07,10.34,9.58,3.16-.25,6.17-1.06,8.88-2.72,6.49-3.97,9.97-9.79,10.01-17.41.08-18.01.01-36.03.01-54.04,0-25.62.04-51.25,0-76.87-.01-11.13-8.03-19.68-19.06-20.51-4.57-.34-8.71,2.43-9.82,6.74-.33,1.28-.31,2.68-.31,4.03-.02,25.03-.01,50.07-.01,75.1Zm32.83.13c0,17.33,0,34.67,0,52,0,.93-.02,1.86.03,2.79.29,5.41,4.52,9.26,9.96,8.88,6.82-.49,12.25-3.51,16.05-9.28,2.41-3.66,3.25-7.74,3.24-12.06-.04-17.33-.08-34.67-.09-52,0-10.82.07-21.65.07-32.47,0-1.68-.11-3.38-.34-5.05-1.31-9.44-10.08-16.99-19.59-16.9-5.17.05-8.99,3.66-9.28,8.8-.06,1.01-.04,2.03-.04,3.04,0,17.42,0,34.84,0,52.26Zm-215.23-.29c0-8.63,0-17.25,0-25.88,0-9.64.03-19.28-.02-28.92-.03-4.63-3.21-8.3-7.82-8.8-1.97-.21-4.08-.05-6.01.42-9.19,2.23-15.31,10.05-15.32,19.57-.04,29,.07,58.01-.06,87.01-.05,10.31,7.61,18.94,17.51,20.43,6.31.95,11.9-3.27,11.8-10.05-.26-17.92-.09-35.85-.09-53.78Zm178.57-12.76c-11.34.08-22.35-.05-33.67.14,1.35,8.67,2.65,16.96,3.93,25.16,3.61.58,28.04.41,29.74-.16v-25.14Zm-14.74-3.7c-3.76-10.8-5.61-21.63-6.05-32.71-.75,0-1.26-.09-1.73.01-5.6,1.29-9.78,4.45-12.34,9.61-1.37,2.76-2.14,5.69-1.65,8.82.63,4.08,1.27,8.17,1.91,12.25.32,2.05.45,2.19,2.6,2.2,5.06.02,10.13.01,15.19,0,.49,0,.99-.09,2.07-.19Zm84.18,3.84c0,8.59-.03,16.91.01,25.27h14.37c.57-2.89.47-23.24-.13-25.27h-14.26Zm-281.03,25.32c.51-5.45.29-23.4-.3-25.29h-13.73c-.6,2.64-.52,23.39.07,25.29h13.95Zm78.65.01c.4-4.5.63-8.72,1.2-12.89.56-4.12,1.48-8.2,2.26-12.4h-12.21c-.68,2.72-.57,23.45.11,25.3h8.64Z"/>
    <path class="cls-4" d="m52.01,422.49c2.17,1.01,3.85,1.76,5.51,2.58,2.92,1.44,5.41,3.41,7.48,5.95,4.52,5.53,4.97,16.7-1.17,22.93-4.51,4.58-10.1,7.1-16.25,8.23-10.36,1.9-20.78,3.48-31.18,5.19-2.56.42-5.13.85-7.72,1.28-.59-1.12-.54-1.71.65-2.02,1.71-.45,3.45-.88,5.07-1.57,1.61-.7,3.18-1.58,4.6-2.62,1.59-1.17,2.32-2.84,1.98-4.9-.79-4.75-1.51-9.5-2.29-14.25-1.78-10.75-3.57-21.49-5.37-32.23-.11-.66-.23-1.33-.4-1.98-1.02-3.83-3.34-5.36-7.34-4.84-1.25.16-2.5.34-3.75.52-.68.1-1.46.29-1.63-.66-.18-1.01.55-1.25,1.39-1.39,2.74-.46,5.48-.95,8.22-1.46,6.88-1.29,13.74-2.66,20.63-3.87,5.93-1.04,11.91-1.45,17.88-.23,7.09,1.45,11.54,6.76,11.32,13.52-.13,4.2-2.42,7.28-5.39,9.96-.6.55-1.25,1.05-2.23,1.88Zm-22.21,6.51c0,1.03-.1,1.8.02,2.53,1.13,6.83,2.3,13.66,3.44,20.49.36,2.13,1.47,3.75,3.22,4.95,6.37,4.37,15.83,1.43,17.98-5.74,1.86-6.2,1.04-12.06-2.37-17.5-2.03-3.24-5.14-5.22-8.87-5.82-4.45-.72-8.9-.25-13.42,1.09Zm5.35-29.02c-2.6.63-5.26,1.09-7.79,1.95-1.89.64-2.21,1.62-1.91,3.58.23,1.5.47,3,.72,4.5.69,4.25,1.37,8.5,2.1,12.74.36,2.09.92,2.46,2.91,2.13,2-.33,4-.61,5.98-1,5.25-1.03,8.66-4.25,9.36-9.31.27-1.94-.03-4.06-.51-5.99-1.42-5.77-4.86-8.31-10.87-8.61Z"/>
    <path class="cls-4" d="m158.04,380.33c1.48-1.72,13.66-8.48,16.39-9.25.12.28.35.56.37.86.37,6.58.73,13.16,1.07,19.75.24,4.56.45,9.12.7,13.68.04.67.12,1.35.28,2.01.34,1.43.78,1.63,2.16,1.03.54-.23,1.05-.54,1.57-.83,1.41-.77,2.8-1.56,4.22-2.33,6.58-3.56,12.92-1.82,17.74,2.62,4.15,3.82,6.33,8.71,6.89,14.29.39,3.9.28,7.78-1.15,11.5-3.06,7.93-8.97,12.61-17.13,14.27-6.78,1.38-13.62.76-20.36-.65-2.09-.44-2.04-.51-2.17-2.71-.65-11.39-1.33-22.78-1.97-34.17-.4-7.26-.74-14.52-1.11-21.78-.06-1.27-.09-2.54-.25-3.8-.3-2.34-1.15-3.22-3.47-3.73-1.13-.25-2.27-.46-3.77-.77Zm42.43,48.87c-.49-3.32-.77-6.61-1.5-9.8-.88-3.86-2.89-7.13-6.72-8.7-4.65-1.91-9.24-1.44-13.63,1.04-1.18.67-1.64,1.63-1.52,2.94.1,1.09.21,2.19.27,3.28.35,6.16.63,12.32,1.06,18.48.31,4.47,3.21,8.13,7.19,8.76,6.07.96,11.41-.88,13.45-7.77.78-2.64.95-5.45,1.4-8.22Z"/>
    <path class="cls-4" d="m385.07,413.07c5.12-2.1,10.42-3.71,15.64-5.55.51-.18,1.11-.13,1.81-.2.32,2.9-.91,5.63-.08,8.64.88-.22,1.68-.35,2.43-.62,2.46-.89,4.92-1.78,7.36-2.75,4.07-1.62,8.23-1.54,12.46-.85,2.75.45,4.72,1.97,5.78,4.42.82,1.91,1.44,3.99,1.68,6.05.6,5.15.13,10.29-.7,15.4-.47,2.92-.91,5.84-1.24,8.78-.39,3.51.8,5.34,4.14,6.62.79.3,1.58.58,2.39.83.76.23,1.54.46,1.43,1.46-.12,1.11-1.02.96-1.76.9-2.69-.22-5.38-.44-8.07-.72-4.19-.43-8.38-.9-12.57-1.39-1-.12-2.01-.28-2.97-.56-.28-.08-.59-.63-.59-.96,0-.34.29-.85.59-.98.61-.27,1.3-.34,1.96-.47,2.67-.56,4.39-2.2,5-4.8.6-2.54,1.07-5.12,1.39-7.72.46-3.69.79-7.39,1.03-11.1.1-1.58-.04-3.21-.27-4.78-.75-5.16-5.17-7.2-9.52-6.43-3.21.56-6.28,1.93-9.39,2.99-1.14.39-1.69,1.25-1.82,2.49-.77,7.31-1.62,14.61-2.39,21.91-.32,2.99.99,5.03,3.8,6.16.7.28,1.48.44,2.09.86.31.21.46.89.41,1.31-.03.26-.6.61-.94.62-1.18.04-2.37.01-3.55-.11-6.04-.64-12.07-1.32-18.11-1.97-.9-.1-1.76-.19-1.72-1.36.04-.97.74-1.23,1.58-1.28.25-.01.51,0,.76-.04,3.44-.4,5.16-2.01,5.61-5.46.44-3.35.74-6.72,1.1-10.08.43-4.03.81-8.07,1.3-12.09.36-3.03-.19-4.06-3.09-5.23-.99-.4-1.98-.79-2.97-1.19v-.76Z"/>
    <path class="cls-4" d="m373.64,447.15v2.05c-.34.12-.66.32-.96.31-3.2-.17-6.4-.34-9.6-.56-4.29-.29-8.58-.61-12.87-.93-.92-.07-1.84-.17-2.76-.3-.72-.1-1.31-.4-1.29-1.27.02-.86.55-1.15,1.32-1.22.59-.06,1.17-.2,1.75-.25,2.66-.24,4.21-1.8,4.59-4.3.47-3.08.71-6.2.94-9.31.69-9.34,1.33-18.69,1.97-28.04.26-3.88.53-7.75.67-11.63.17-4.8-1.09-6.24-5.92-7.12-.24-.04-.47-.13-.69-.19-.23-2.28-.09-2.54,1.89-2.41,5.64.38,11.27.85,16.9,1.26,2.1.15,4.23.13,6.31.39.86.11,2.31-.22,2.38,1.29.09,1.8-1.45,1.26-2.41,1.41-3.75.59-5.35,2.19-5.63,5.96-.55,7.41-1.02,14.82-1.56,22.23-.59,8.17-1.21,16.33-1.82,24.5-.04.51-.08,1.01-.09,1.52-.04,3.39,1.28,5.16,4.54,6.1.72.21,1.46.34,2.31.54Z"/>
    <path class="cls-4" d="m103.67,448.92c-1.49,1.44-2.76,2.53-3.87,3.76-3.93,4.37-8.99,5.17-14.39,4.37-3.11-.46-5.42-2.41-6.35-5.54-.9-3.06-.88-6.13,1.57-8.52,1.49-1.46,3.22-2.77,5.05-3.76,2.82-1.52,5.84-2.65,8.73-4.04,1.9-.91,3.71-1.99,5.56-3,1.33-.73,1.89-1.82,1.67-3.36-.38-2.67-.55-5.38-1.06-8.03-.84-4.36-4.2-6.52-8.61-5.76-3.62.63-5.71,4.08-5.04,8.33.04.24,0,.5,0,1.05-2.79,1.78-6.06,2.83-9.27,4.18-.93-.97-.92-2.01-.74-3.12.43-2.77,1.72-5.13,3.63-7.12,5.55-5.77,12.37-8.08,20.26-6.95,5.13.73,8.51,4.32,9.15,9.42.86,6.79,1.67,13.58,2.5,20.37.06.5.12,1.01.26,1.5.75,2.63,3.14,3.68,5.56,2.4.8-.42,1.5-1.03,2.38-1.65.67,1.27.3,2.25-.52,3.04-2.56,2.45-5.05,5.01-7.81,7.23-2.85,2.29-4.72,1.8-6.66-1.28-.62-.99-1.17-2.03-2.02-3.51Zm-1.71-14.2c-1.93,1.17-3.6,2.13-5.22,3.16-2.14,1.35-4.34,2.63-6.33,4.18-1.98,1.55-2.41,4.02-1.46,6.18.83,1.89,3.01,2.94,5.56,2.55,3.22-.5,5.85-2.11,7.9-4.62.84-1.02,1.17-2.19.96-3.55-.3-1.91-.47-3.85-.75-5.77-.09-.62-.36-1.2-.66-2.13Z"/>
    <path class="cls-4" d="m308.79,368.98c.04.9.13,1.64.11,2.37-.37,14.62-.73,29.25-1.14,43.87-.19,6.93-.49,13.86-.75,20.78-.17,4.56.82,5.97,5.2,7.36.24.08.48.16.72.24.72.26,1.26.76.94,1.51-.17.4-.84.79-1.31.82-1.52.1-3.04.05-4.56.01-5.32-.15-10.64-.31-15.96-.5-.93-.03-2.3.44-2.51-.99-.24-1.6,1.18-1.49,2.23-1.72,3.6-.8,5.01-2.44,5.17-6.14.19-4.39.29-8.79.42-13.18.22-7.86.43-15.72.66-23.58.15-5.41.34-10.82.47-16.23.08-3.24-.63-4.16-3.76-5.07-.57-.17-1.17-.25-1.69-.51-.41-.2-1.02-.62-1-.91.03-.49.46-.97.79-1.41.14-.18.43-.26.66-.36,4.64-2.04,9.28-4.07,13.93-6.09.36-.16.79-.17,1.4-.28Z"/>
    <path class="cls-4" d="m262.49,376.61c.34-.41.6-1.02,1.05-1.23,5.1-2.41,10.23-4.76,15.76-7.32.11,1.31.26,2.27.25,3.22-.04,10.14-.08,20.29-.17,30.43-.09,10.82-.24,21.63-.35,32.45-.01.93-.04,1.86.02,2.79.18,2.94,1.35,4.43,4.16,5.37.72.24,1.51.34,2.16.7.34.19.58.8.59,1.22,0,.25-.49.64-.83.75-.47.15-1,.1-1.51.1-6.59-.03-13.18-.05-19.78-.11-.84,0-2.09.41-2.25-.95-.14-1.27,1.11-1.29,1.93-1.59.71-.26,1.47-.37,2.17-.65,1.68-.69,2.77-1.92,3.02-3.76.15-1.08.23-2.18.24-3.28.07-12.68.11-25.36.2-38.04.03-4.48.21-8.96.26-13.43.03-3.34-.76-4.34-3.99-5.15-1.84-.46-1.85-.41-2.94-1.51Z"/>
    <path class="cls-4" d="m253.46,434.68c.56.58,1.05,1.1,1.62,1.71-2.28,2.93-5.03,4.99-8.04,6.74-3.54,2.06-7.25,3.39-11.48,3.48-7.58.16-16.33-4.94-18.65-14.68-1.77-7.43-.76-14.69,3.47-21.19,4.41-6.78,10.98-9.33,18.89-9.22,8.86.13,14.35,8.1,15.71,14.21.13.57.06,1.18.05,1.77,0,1.02-.51,1.57-1.56,1.58-.34,0-.68.01-1.01.02-7.86.17-15.72.34-23.58.51-.59.01-1.19.01-1.77.08-.86.09-1.4.59-1.49,1.46-.88,7.75,2.98,16.97,11.72,18.92,4.01.9,7.91.21,11.41-2.11,1.54-1.02,3.03-2.11,4.7-3.28Zm-22.79-17.89v-.07c1.93-.09,3.87-.2,5.81-.25,1.94-.05,3.88,0,5.82-.06,2.22-.06,2.74-.58,2.43-2.77-.47-3.4-2.11-6.09-5.47-7.27-6.19-2.17-10.95,2.09-12.39,6.84-.78,2.59.03,3.58,2.79,3.58.34,0,.67,0,1.01,0Z"/>
    <path class="cls-4" d="m465.22,461.4c-10.64.24-16.67-7.84-18.35-14.66-2.14-8.69-.18-16.61,5.68-23.4,3.11-3.6,7.27-5.27,11.95-6,5.41-.84,10.58,0,15.71,1.58,1.2.37,2.41.88,3.42,1.6.93.66,1.82,1.56,2.36,2.56,1.3,2.41-.16,4.99-2.88,5.08-2.05.06-4.06-.36-5.5-2.06-.66-.77-1.24-1.6-1.86-2.4-2.69-3.46-7.37-4.38-11.05-1.99-1.31.85-2.64,1.97-3.44,3.29-4.14,6.76-5.42,14.1-3.8,21.88,1.64,7.87,11.14,11.75,18.05,7.32.85-.55,1.65-1.18,2.48-1.76.48-.34.94-.76,1.48-.95,1.02-.35,2.07-.28,2.74.68.69.99.04,1.76-.67,2.41-4.71,4.32-10.07,7.07-16.31,6.82Z"/>
    <path class="cls-4" d="m123.04,415.74c5.2-3.04,10.4-6.08,15.77-9.22,1.36,3.18.46,6.46,1.9,9.83.87-1.08,1.43-1.75,1.96-2.45,1.27-1.69,2.43-3.46,3.79-5.07,1.62-1.92,3.68-2.62,6.13-1.64,1.25.5,2.52.95,3.77,1.44,1.14.45,1.47,1.34,1.19,2.47-.18.73-.44,1.46-.72,2.16-1.42,3.47-1.64,3.55-5.19,2.43-1.04-.33-2.12-.6-3.2-.66-4.66-.25-7.77,2.73-7.61,7.39.12,3.38.46,6.74.74,10.11.23,2.69.71,5.38.74,8.07.05,3.82,2.18,5.76,6.23,6.26,1.09.13,2.18.21,3.26.4.72.13,1.37.59,1.07,1.38-.15.4-.83.81-1.3.86-4.2.41-8.41.72-12.61,1.09-2.86.26-5.71.58-8.56.85-1.01.09-2.03.21-3.03.11-.56-.06-1.4-.41-1.57-.84-.38-.97.54-1.23,1.27-1.49.56-.19,1.13-.37,1.67-.6,2.75-1.19,3.8-3.01,3.53-6.03-.6-6.9-1.2-13.8-1.79-20.7-.29-3.38-1.26-4.37-4.69-4.82-.87-.11-1.73-.33-2.6-.5l-.16-.84Z"/>
    <path class="cls-4" d="m195.67,497.94v-12.54c1.25-1.23,1.92.03,2.58.54,1.24-.53,2.37-1.4,3.48-1.38,1,.02,1.97,1.02,3.1,1.66.45-.36,1-.88,1.62-1.28,1.7-1.08,3.33-.53,4.09,1.36.16.39.3.81.3,1.22.03,3.13.03,6.26.03,9.39,0,.74-.19,1.37-1.09,1.39-.84.02-1.24-.5-1.27-1.27-.06-1.35-.03-2.71-.08-4.06-.05-1.69-.05-3.39-.25-5.06-.07-.56-.6-1.36-1.06-1.48-.49-.13-1.4.28-1.69.73-.51.82-.89,1.82-.97,2.78-.15,1.68-.05,3.38-.06,5.07,0,.59,0,1.18-.02,1.78-.03.83-.22,1.55-1.27,1.5-.91-.04-1.06-.7-1.07-1.42-.02-1.35-.01-2.71-.03-4.06-.02-1.52,0-3.05-.09-4.56-.05-.86-.34-1.91-1.33-1.86-.68.04-1.5.71-1.94,1.32-.4.56-.47,1.42-.49,2.16-.06,2.2.01,4.4-.04,6.6-.05,1.9-.21,1.98-2.48,1.48Z"/>
    <path class="cls-4" d="m253.86,498.46c-1.13-.35-2.01-.62-3.02-.93-.28.2-.67.53-1.1.77-1.84,1.05-3.81.65-4.77-1.22-1.79-3.52-1.8-7.16.05-10.67,1.01-1.92,2.59-2.33,4.74-1.61.38.13.76.28,1.49.55.05-1.88.09-3.52.14-5.16.02-.76.3-1.3,1.17-1.33.91-.03,1.45.34,1.45,1.31,0,.51.02,1.01.02,1.52,0,2.7,0,5.39,0,8.09,0,2.02.01,4.05,0,6.07,0,.74-.09,1.48-.17,2.61Zm-2.52-6.81s.01,0,.02,0c0-1.01.02-2.01,0-3.02-.03-1.27-.77-2.02-1.91-2.35-.96-.28-2,.43-2.43,1.72-.79,2.37-.83,4.79-.08,7.18.32,1.02.94,1.82,2.12,1.84,1.01.02,2.13-1.1,2.26-2.34.1-1,.02-2.01.02-3.02Z"/>
    <path class="cls-4" d="m270.8,504.06v-18.75c1.27-.98,1.91.08,2.61.6.25-.05.45-.03.57-.12,3.19-2.38,5.54-1.57,6.49,2.22.54,2.17.59,4.32.08,6.51-.98,4.16-2.83,5.14-6.98,3.32-.5,1.48-.19,2.98-.27,4.42-.11,1.86-.23,1.96-2.49,1.79Zm2.51-12.29h-.01c0,.76-.02,1.52,0,2.28.06,1.74.88,2.84,2.15,2.94,1.1.09,2.15-.77,2.36-2.51.23-1.98.23-4.03,0-6.02-.18-1.63-1.19-2.37-2.26-2.22-1.12.16-2.13,1.34-2.24,2.73-.07.92-.01,1.86-.01,2.79Z"/>
    <path class="cls-4" d="m161.63,486.12c1.22-1.27,2.57-2.24,4.3-1.45,1.86.85,1.84,2.63,1.83,4.36-.02,2.94,0,5.89,0,8.75-2.27.78-2.6.61-2.64-1.41-.05-2.45,0-4.9-.03-7.35-.01-1.08.15-2.33-1.31-2.67-.96-.22-2.35,1.03-2.57,2.38-.16.99-.1,2.02-.1,3.03-.01,1.52,0,3.04,0,4.56,0,.93.11,1.96-1.28,2.01-1.39.04-1.37-.95-1.37-1.91,0-3.21-.03-6.42.03-9.63.01-.6.2-1.46.62-1.74.74-.5,1.41.02,1.85.76.07.11.29.13.68.3Z"/>
    <path class="cls-4" d="m185,485.23c0,2.67,0,5.2,0,7.72,0,.76-.13,1.57.09,2.27.2.64.72,1.51,1.24,1.64.55.13,1.49-.36,1.88-.87.46-.62.68-1.53.72-2.33.09-2.28,0-4.56.05-6.85.04-1.9.21-1.98,2.47-1.55v12.67c-1.3.98-1.92-.06-2.63-.77-.36.25-.66.4-.89.62-1.08,1.05-2.38,1.38-3.73.78-1.4-.61-1.81-1.98-1.84-3.38-.06-2.87-.06-5.75,0-8.62.03-1.68.15-1.71,2.65-1.33Z"/>
    <path class="cls-4" d="m224.91,491.71c-.26,1.29-.38,2.75-.88,4.05-.8,2.08-2.41,3.12-4.74,3.07-2.22-.05-3.73-1.12-4.48-3.09-1.01-2.68-1.01-5.48-.03-8.16.83-2.26,2.52-3.22,4.94-3.15,2.2.07,3.79,1.19,4.49,3.4.38,1.19.45,2.47.68,3.87Zm-8.13-.09c.17,1.2.16,2.52.61,3.66.29.72,1.2,1.47,1.97,1.66,1.11.28,1.91-.62,2.23-1.64.74-2.39.72-4.83.05-7.23-.29-1.04-1.03-1.81-2.18-1.81-1.16,0-1.9.76-2.17,1.81-.28,1.13-.34,2.32-.51,3.56Z"/>
    <path class="cls-4" d="m343.62,491.8c-.19,1.09-.27,2.38-.66,3.55-.8,2.37-2.38,3.45-4.71,3.46-2.38.01-3.97-1.01-4.77-3.37-.86-2.53-.87-5.16.02-7.69.84-2.39,2.56-3.42,5.07-3.32,2.24.09,3.91,1.37,4.55,3.7.31,1.12.33,2.33.51,3.68Zm-8.08-.18c.17,1.2.15,2.53.61,3.66.29.72,1.2,1.47,1.97,1.66,1.11.27,1.91-.62,2.23-1.65.74-2.39.71-4.83.05-7.23-.29-1.04-1.03-1.81-2.18-1.81-1.16,0-1.91.77-2.17,1.81-.28,1.13-.34,2.32-.51,3.56Z"/>
    <path class="cls-4" d="m294.35,491.8c-.22,1.13-.32,2.41-.72,3.59-.83,2.45-2.48,3.5-4.98,3.43-2.34-.07-4.26-1.42-4.64-3.86-.34-2.13-.35-4.39-.03-6.52.38-2.53,2.38-3.96,4.81-4,2.57-.04,4.28,1.17,5.02,3.74.32,1.12.36,2.32.54,3.63Zm-2.75-.22c-.18-1.2-.17-2.52-.64-3.65-.29-.72-1.23-1.45-2-1.62-1.11-.25-1.9.65-2.22,1.68-.74,2.4-.74,4.84-.01,7.24.31,1.03,1.05,1.81,2.21,1.78,1.15-.03,1.89-.8,2.14-1.86.27-1.14.34-2.32.51-3.57Z"/>
    <path class="cls-4" d="m267.15,492.1c-2.45.11-4.6.21-6.69.3-.6,3.61,1.04,5.2,4.1,4.31.24-.07.5-.27.71-.22.42.09.82.31,1.22.48-.17.35-.25.81-.52,1.02-2.16,1.69-6.24.98-7.52-1.49-1.69-3.27-1.62-6.68.13-9.93.93-1.72,2.57-2.32,4.52-2.13,1.78.17,2.92,1.17,3.64,2.73.7,1.51.72,3.06.4,4.93Zm-7.2-1.41c1.46.09,2.52.21,3.57.19,1.01-.01,1.55-.62,1.41-1.64-.09-.65-.18-1.4-.55-1.89-.41-.54-1.16-1.17-1.72-1.14-.69.04-1.63.57-1.95,1.16-.47.87-.49,1.99-.76,3.32Z"/>
    <path class="cls-4" d="m346.04,497.24c.2-.79.63-1.14,1.47-.81.62.25,1.25.54,1.9.64,1.27.19,2.29-.42,2.63-1.48.36-1.13-.1-2.01-1.02-2.61-.78-.5-1.66-.82-2.48-1.26-2.06-1.09-2.76-2.54-2.25-4.55.42-1.67,1.97-2.8,4.06-2.71,1.05.04,2.11.41,3.11.78.27.1.32.76.61,1.51-.92-.18-1.46-.26-1.99-.4-1.76-.45-2.8-.13-3.21,1.03-.39,1.07.11,1.94,1.61,2.74.74.4,1.54.7,2.27,1.12,1.71,1,2.41,2.49,2.05,4.23-.37,1.82-1.77,3.07-3.69,3.3-2.29.28-3.34-.04-5.06-1.55Z"/>
    <path class="cls-4" d="m231.15,499.1c-1.16-.43-2.32-.83-3.45-1.32-.2-.09-.42-.68-.32-.82.21-.3.66-.68.95-.63.65.1,1.24.52,1.89.68,1.39.34,2.5-.15,2.98-1.25.48-1.09.08-2.19-1.21-2.95-.87-.51-1.84-.85-2.71-1.36-1.6-.95-2.15-2.28-1.79-4.09.31-1.55,1.67-2.84,3.4-2.87,1.22-.02,2.47.32,3.66.64.26.07.35.78.52,1.2-.37.09-.75.29-1.11.25-.49-.05-.95-.35-1.44-.43-1.1-.16-2.04.13-2.44,1.29-.35,1.04.12,1.82,1,2.35.65.39,1.36.68,2.04,1.01,2.54,1.27,3.4,2.79,2.81,4.98-.53,1.99-2.14,3.03-4.78,3.31Z"/>
    <path class="cls-4" d="m178.59,486.36c-.38.07-.77.22-1.14.18-.49-.05-.96-.31-1.46-.38-1.11-.16-2.05.18-2.44,1.32-.36,1.05.2,1.82,1.05,2.33.79.48,1.67.79,2.49,1.24,2.12,1.16,2.82,2.63,2.32,4.8-.4,1.74-2,2.9-4.19,2.97-1.69.05-3.36,0-4.43-1.58.29-.99.83-1.04,1.59-.74.7.27,1.43.53,2.17.59,1,.09,1.83-.35,2.16-1.38.3-.95.18-1.88-.69-2.5-.61-.44-1.31-.75-1.99-1.08-2.78-1.33-3.79-3.36-2.76-5.6.89-1.92,3.86-2.74,6.23-1.67.48.22.87.65,1.31.98-.07.18-.15.36-.22.54Z"/>
    <path class="cls-4" d="m320.46,485.12c2.46-.19,2.52-.21,2.9,1.44.47,2.05.82,4.13,1.25,6.18.2.96.47,1.9.83,3.39.53-.88.87-1.24.97-1.65.58-2.63,1.08-5.28,1.67-7.9.34-1.52.46-1.55,2.23-1.47.27,1.7-1.77,10.2-3.13,13-3.02.53-3.1.49-3.86-2.32-.94-3.48-1.87-6.97-2.86-10.67Z"/>
    <path class="cls-4" d="m309.46,487c0,2.68-.03,5.27.02,7.87.02,1.12.51,1.89,1.82,1.99.53.04,1.04.44,1.78.78-1.46,1.59-2.93,1.35-4.25.94-1.35-.43-1.79-1.68-1.81-3.04-.02-1.68-.02-3.37-.05-5.05-.03-1.78.43-3.74-2.15-4.66,1.4-1.06,2.26-2.07,2.35-3.62.02-.34,1.06-.63,1.83-1.05.21.87.38,1.34.42,1.81.07.93.36,1.58,1.36,1.86.4.11.7.57,1.04.87-.42.3-.84.62-1.27.9-.2.13-.46.17-1.09.4Z"/>
    <path class="cls-4" d="m151.92,497.97v-17.34c.77-.08,1.47-.16,2.12-.23.21.42.42.64.42.86.04,5.16.08,10.32.05,15.48-.01,1.63-.21,1.68-2.59,1.23Z"/>
    <path class="cls-4" d="m300.56,486.52q1.71-1.82,3.48-1.86c.02,1.23-.06,2.12-1.61,2.58-1.78.52-2.11,2.28-2.2,3.9-.1,1.76,0,3.53-.05,5.3-.05,1.93-.12,1.96-2.66,1.55,0-1.01,0-2.07,0-3.14,0-2.69-.01-5.39.01-8.08,0-.72-.2-1.59.87-1.83,1.02-.22,1.27.55,1.6,1.23.06.12.27.17.55.34Z"/>
    <path class="cls-4" d="m315.4,498.04v-12.93c.78-.06,1.47-.12,2.37-.2.07.97.17,1.7.18,2.43.02,3.02.04,6.05,0,9.07-.03,1.94-.1,1.96-2.54,1.63Z"/>
    <path class="cls-4" d="m316.67,477.59c.93.16,1.39.74,1.35,1.72-.04.9-.83,1.66-1.62,1.5-.84-.16-1.27-.73-1.27-1.6,0-.97.62-1.66,1.54-1.63Z"/>
  </g>
</svg>